<mxfile host="app.diagrams.net" agent="Mozilla/5.0 (Windows NT 10.0; Win64; x64; rv:130.0) Gecko/20100101 Firefox/130.0" version="24.7.12">
  <diagram name="Pagina-1" id="FEXnMWsHNJ7y4Xhe1raK">
    <mxGraphModel dx="1434" dy="774" grid="1" gridSize="10" guides="1" tooltips="1" connect="1" arrows="1" fold="1" page="1" pageScale="1" pageWidth="827" pageHeight="1169" math="0" shadow="0">
      <root>
        <mxCell id="0" />
        <mxCell id="1" parent="0" />
        <mxCell id="Hq1YCbd5vGKezUg84HLW-1" value="Utente" style="shape=umlActor;verticalLabelPosition=bottom;verticalAlign=top;html=1;outlineConnect=0;" vertex="1" parent="1">
          <mxGeometry x="590" y="155" width="30" height="60" as="geometry" />
        </mxCell>
        <mxCell id="Hq1YCbd5vGKezUg84HLW-5" value="" style="endArrow=classic;html=1;rounded=0;" edge="1" parent="1" source="Hq1YCbd5vGKezUg84HLW-1">
          <mxGeometry width="50" height="50" relative="1" as="geometry">
            <mxPoint x="640" y="184.5" as="sourcePoint" />
            <mxPoint x="700" y="185" as="targetPoint" />
          </mxGeometry>
        </mxCell>
        <mxCell id="Hq1YCbd5vGKezUg84HLW-6" value="Crea magazzino" style="ellipse;whiteSpace=wrap;html=1;" vertex="1" parent="1">
          <mxGeometry x="710" y="160" width="96" height="50" as="geometry" />
        </mxCell>
        <mxCell id="Hq1YCbd5vGKezUg84HLW-7" value="" style="endArrow=classic;html=1;rounded=0;" edge="1" parent="1" source="Hq1YCbd5vGKezUg84HLW-1">
          <mxGeometry width="50" height="50" relative="1" as="geometry">
            <mxPoint x="450" y="185" as="sourcePoint" />
            <mxPoint x="520" y="185" as="targetPoint" />
          </mxGeometry>
        </mxCell>
        <mxCell id="Hq1YCbd5vGKezUg84HLW-11" value="" style="endArrow=none;dashed=1;html=1;rounded=0;entryX=0.5;entryY=1;entryDx=0;entryDy=0;startArrow=classic;startFill=1;exitX=0.5;exitY=0;exitDx=0;exitDy=0;" edge="1" parent="1" source="Hq1YCbd5vGKezUg84HLW-12" target="Hq1YCbd5vGKezUg84HLW-4">
          <mxGeometry width="50" height="50" relative="1" as="geometry">
            <mxPoint x="464" y="320" as="sourcePoint" />
            <mxPoint x="690" y="280" as="targetPoint" />
          </mxGeometry>
        </mxCell>
        <mxCell id="Hq1YCbd5vGKezUg84HLW-13" value="&amp;lt;&amp;lt;extend&amp;gt;&amp;gt;" style="edgeLabel;html=1;align=center;verticalAlign=middle;resizable=0;points=[];" vertex="1" connectable="0" parent="Hq1YCbd5vGKezUg84HLW-11">
          <mxGeometry x="0.1081" relative="1" as="geometry">
            <mxPoint as="offset" />
          </mxGeometry>
        </mxCell>
        <mxCell id="Hq1YCbd5vGKezUg84HLW-12" value="Entra nel magazzino" style="ellipse;whiteSpace=wrap;html=1;" vertex="1" parent="1">
          <mxGeometry x="416" y="290" width="96" height="50" as="geometry" />
        </mxCell>
        <mxCell id="Hq1YCbd5vGKezUg84HLW-14" value="" style="endArrow=classic;dashed=1;html=1;rounded=0;entryX=0.5;entryY=1;entryDx=0;entryDy=0;startArrow=none;startFill=0;endFill=1;" edge="1" parent="1" source="Hq1YCbd5vGKezUg84HLW-4">
          <mxGeometry width="50" height="50" relative="1" as="geometry">
            <mxPoint x="463.5" y="164" as="sourcePoint" />
            <mxPoint x="463.5" y="90" as="targetPoint" />
          </mxGeometry>
        </mxCell>
        <mxCell id="Hq1YCbd5vGKezUg84HLW-15" value="&amp;lt;&amp;lt;extend&amp;gt;&amp;gt;" style="edgeLabel;html=1;align=center;verticalAlign=middle;resizable=0;points=[];" vertex="1" connectable="0" parent="Hq1YCbd5vGKezUg84HLW-14">
          <mxGeometry x="0.1081" relative="1" as="geometry">
            <mxPoint y="9" as="offset" />
          </mxGeometry>
        </mxCell>
        <mxCell id="Hq1YCbd5vGKezUg84HLW-16" value="Geolocalizza magazzino" style="ellipse;whiteSpace=wrap;html=1;" vertex="1" parent="1">
          <mxGeometry x="416" y="40" width="96" height="50" as="geometry" />
        </mxCell>
        <mxCell id="Hq1YCbd5vGKezUg84HLW-17" value="" style="endArrow=none;dashed=1;html=1;rounded=0;startArrow=classic;startFill=1;exitX=0.729;exitY=0.98;exitDx=0;exitDy=0;exitPerimeter=0;" edge="1" parent="1" source="Hq1YCbd5vGKezUg84HLW-20">
          <mxGeometry width="50" height="50" relative="1" as="geometry">
            <mxPoint x="290" y="53" as="sourcePoint" />
            <mxPoint x="440" y="290" as="targetPoint" />
          </mxGeometry>
        </mxCell>
        <mxCell id="Hq1YCbd5vGKezUg84HLW-19" value="&amp;lt;&amp;lt;extend&amp;gt;&amp;gt;" style="edgeLabel;html=1;align=center;verticalAlign=middle;resizable=0;points=[];" vertex="1" connectable="0" parent="Hq1YCbd5vGKezUg84HLW-17">
          <mxGeometry x="0.0526" y="1" relative="1" as="geometry">
            <mxPoint as="offset" />
          </mxGeometry>
        </mxCell>
        <mxCell id="Hq1YCbd5vGKezUg84HLW-20" value="Esci dal magazzino" style="ellipse;whiteSpace=wrap;html=1;" vertex="1" parent="1">
          <mxGeometry x="302" y="80" width="96" height="50" as="geometry" />
        </mxCell>
        <mxCell id="Hq1YCbd5vGKezUg84HLW-22" value="" style="endArrow=none;dashed=1;html=1;rounded=0;entryX=0.052;entryY=0.24;entryDx=0;entryDy=0;startArrow=classic;startFill=1;exitX=1;exitY=1;exitDx=0;exitDy=0;entryPerimeter=0;" edge="1" parent="1" source="Hq1YCbd5vGKezUg84HLW-24" target="Hq1YCbd5vGKezUg84HLW-12">
          <mxGeometry width="50" height="50" relative="1" as="geometry">
            <mxPoint x="310" y="240" as="sourcePoint" />
            <mxPoint x="463.5" y="370" as="targetPoint" />
          </mxGeometry>
        </mxCell>
        <mxCell id="Hq1YCbd5vGKezUg84HLW-23" value="&amp;lt;&amp;lt;extend&amp;gt;&amp;gt;" style="edgeLabel;html=1;align=center;verticalAlign=middle;resizable=0;points=[];" vertex="1" connectable="0" parent="Hq1YCbd5vGKezUg84HLW-22">
          <mxGeometry x="0.1081" relative="1" as="geometry">
            <mxPoint as="offset" />
          </mxGeometry>
        </mxCell>
        <mxCell id="Hq1YCbd5vGKezUg84HLW-24" value="Visualizza lista oggetti" style="ellipse;whiteSpace=wrap;html=1;" vertex="1" parent="1">
          <mxGeometry x="249" y="180" width="102" height="56" as="geometry" />
        </mxCell>
        <mxCell id="Hq1YCbd5vGKezUg84HLW-25" value="" style="endArrow=none;dashed=1;html=1;rounded=0;startArrow=classic;startFill=1;exitX=0.637;exitY=0.964;exitDx=0;exitDy=0;exitPerimeter=0;" edge="1" parent="1" source="Hq1YCbd5vGKezUg84HLW-27">
          <mxGeometry width="50" height="50" relative="1" as="geometry">
            <mxPoint x="420" y="460" as="sourcePoint" />
            <mxPoint x="290" y="180" as="targetPoint" />
          </mxGeometry>
        </mxCell>
        <mxCell id="Hq1YCbd5vGKezUg84HLW-26" value="&amp;lt;&amp;lt;extend&amp;gt;&amp;gt;" style="edgeLabel;html=1;align=center;verticalAlign=middle;resizable=0;points=[];" vertex="1" connectable="0" parent="Hq1YCbd5vGKezUg84HLW-25">
          <mxGeometry x="0.1081" relative="1" as="geometry">
            <mxPoint as="offset" />
          </mxGeometry>
        </mxCell>
        <mxCell id="Hq1YCbd5vGKezUg84HLW-27" value="Modifica quantitÃ  oggetti" style="ellipse;whiteSpace=wrap;html=1;" vertex="1" parent="1">
          <mxGeometry x="160" y="20" width="102" height="56" as="geometry" />
        </mxCell>
        <mxCell id="Hq1YCbd5vGKezUg84HLW-29" value="" style="endArrow=classic;dashed=1;html=1;rounded=0;entryX=0.5;entryY=1;entryDx=0;entryDy=0;startArrow=none;startFill=0;endFill=1;" edge="1" parent="1" target="Hq1YCbd5vGKezUg84HLW-4">
          <mxGeometry width="50" height="50" relative="1" as="geometry">
            <mxPoint x="463.5" y="164" as="sourcePoint" />
            <mxPoint x="463.5" y="90" as="targetPoint" />
          </mxGeometry>
        </mxCell>
        <mxCell id="Hq1YCbd5vGKezUg84HLW-4" value="Visualizza magazzini" style="ellipse;whiteSpace=wrap;html=1;" vertex="1" parent="1">
          <mxGeometry x="416" y="160" width="96" height="50" as="geometry" />
        </mxCell>
        <mxCell id="Hq1YCbd5vGKezUg84HLW-33" value="Visualizza lista utenti" style="ellipse;whiteSpace=wrap;html=1;" vertex="1" parent="1">
          <mxGeometry x="314" y="430" width="102" height="56" as="geometry" />
        </mxCell>
        <mxCell id="Hq1YCbd5vGKezUg84HLW-34" value="" style="endArrow=none;dashed=1;html=1;rounded=0;startArrow=classic;startFill=1;exitX=0.686;exitY=0;exitDx=0;exitDy=0;entryX=0.281;entryY=0.96;entryDx=0;entryDy=0;entryPerimeter=0;exitPerimeter=0;" edge="1" parent="1" source="Hq1YCbd5vGKezUg84HLW-33" target="Hq1YCbd5vGKezUg84HLW-12">
          <mxGeometry width="50" height="50" relative="1" as="geometry">
            <mxPoint x="430" y="410" as="sourcePoint" />
            <mxPoint x="410" y="340" as="targetPoint" />
          </mxGeometry>
        </mxCell>
        <mxCell id="Hq1YCbd5vGKezUg84HLW-35" value="&amp;lt;&amp;lt;extend&amp;gt;&amp;gt;" style="edgeLabel;html=1;align=center;verticalAlign=middle;resizable=0;points=[];" vertex="1" connectable="0" parent="Hq1YCbd5vGKezUg84HLW-34">
          <mxGeometry x="0.1081" relative="1" as="geometry">
            <mxPoint as="offset" />
          </mxGeometry>
        </mxCell>
        <mxCell id="Hq1YCbd5vGKezUg84HLW-36" value="" style="endArrow=none;dashed=1;html=1;rounded=0;startArrow=classic;startFill=1;exitX=0.294;exitY=0.018;exitDx=0;exitDy=0;entryX=0.927;entryY=0.76;entryDx=0;entryDy=0;exitPerimeter=0;entryPerimeter=0;" edge="1" parent="1" source="Hq1YCbd5vGKezUg84HLW-38" target="Hq1YCbd5vGKezUg84HLW-12">
          <mxGeometry width="50" height="50" relative="1" as="geometry">
            <mxPoint x="390" y="490" as="sourcePoint" />
            <mxPoint x="440" y="340" as="targetPoint" />
          </mxGeometry>
        </mxCell>
        <mxCell id="Hq1YCbd5vGKezUg84HLW-37" value="&amp;lt;&amp;lt;extend&amp;gt;&amp;gt;" style="edgeLabel;html=1;align=center;verticalAlign=middle;resizable=0;points=[];" vertex="1" connectable="0" parent="Hq1YCbd5vGKezUg84HLW-36">
          <mxGeometry x="0.1081" relative="1" as="geometry">
            <mxPoint as="offset" />
          </mxGeometry>
        </mxCell>
        <mxCell id="Hq1YCbd5vGKezUg84HLW-38" value="Visualizza lista amministratori" style="ellipse;whiteSpace=wrap;html=1;" vertex="1" parent="1">
          <mxGeometry x="660" y="520" width="102" height="56" as="geometry" />
        </mxCell>
        <mxCell id="Hq1YCbd5vGKezUg84HLW-41" value="" style="endArrow=none;dashed=1;html=1;rounded=0;entryX=0.063;entryY=0.72;entryDx=0;entryDy=0;startArrow=classic;startFill=1;exitX=1.01;exitY=0.339;exitDx=0;exitDy=0;exitPerimeter=0;entryPerimeter=0;" edge="1" parent="1" source="Hq1YCbd5vGKezUg84HLW-43" target="Hq1YCbd5vGKezUg84HLW-12">
          <mxGeometry width="50" height="50" relative="1" as="geometry">
            <mxPoint x="150" y="410" as="sourcePoint" />
            <mxPoint x="440" y="340" as="targetPoint" />
          </mxGeometry>
        </mxCell>
        <mxCell id="Hq1YCbd5vGKezUg84HLW-42" value="&amp;lt;&amp;lt;extend&amp;gt;&amp;gt;" style="edgeLabel;html=1;align=center;verticalAlign=middle;resizable=0;points=[];" vertex="1" connectable="0" parent="Hq1YCbd5vGKezUg84HLW-41">
          <mxGeometry x="0.1081" relative="1" as="geometry">
            <mxPoint x="-10" as="offset" />
          </mxGeometry>
        </mxCell>
        <mxCell id="Hq1YCbd5vGKezUg84HLW-43" value="Crea nuovo oggetto" style="ellipse;whiteSpace=wrap;html=1;" vertex="1" parent="1">
          <mxGeometry x="31" y="430" width="102" height="56" as="geometry" />
        </mxCell>
        <mxCell id="Hq1YCbd5vGKezUg84HLW-44" value="" style="endArrow=none;dashed=1;html=1;rounded=0;" edge="1" parent="1">
          <mxGeometry width="50" height="50" relative="1" as="geometry">
            <mxPoint x="600" y="340" as="sourcePoint" />
            <mxPoint x="600" y="360" as="targetPoint" />
          </mxGeometry>
        </mxCell>
        <mxCell id="Hq1YCbd5vGKezUg84HLW-51" value="" style="endArrow=none;dashed=1;html=1;rounded=0;startArrow=classic;startFill=1;entryX=0;entryY=0.5;entryDx=0;entryDy=0;exitX=1.01;exitY=0.375;exitDx=0;exitDy=0;exitPerimeter=0;" edge="1" parent="1" source="Hq1YCbd5vGKezUg84HLW-53" target="Hq1YCbd5vGKezUg84HLW-24">
          <mxGeometry width="50" height="50" relative="1" as="geometry">
            <mxPoint x="170" y="240" as="sourcePoint" />
            <mxPoint x="260" y="260" as="targetPoint" />
          </mxGeometry>
        </mxCell>
        <mxCell id="Hq1YCbd5vGKezUg84HLW-52" value="&amp;lt;&amp;lt;extend&amp;gt;&amp;gt;" style="edgeLabel;html=1;align=center;verticalAlign=middle;resizable=0;points=[];" vertex="1" connectable="0" parent="Hq1YCbd5vGKezUg84HLW-51">
          <mxGeometry x="0.1081" relative="1" as="geometry">
            <mxPoint as="offset" />
          </mxGeometry>
        </mxCell>
        <mxCell id="Hq1YCbd5vGKezUg84HLW-53" value="Cancella oggetto" style="ellipse;whiteSpace=wrap;html=1;" vertex="1" parent="1">
          <mxGeometry x="10" y="90" width="102" height="56" as="geometry" />
        </mxCell>
        <mxCell id="Hq1YCbd5vGKezUg84HLW-56" value="" style="endArrow=none;dashed=1;html=1;rounded=0;entryX=1;entryY=0.5;entryDx=0;entryDy=0;" edge="1" parent="1">
          <mxGeometry width="50" height="50" relative="1" as="geometry">
            <mxPoint x="180" y="250" as="sourcePoint" />
            <mxPoint x="142" y="240" as="targetPoint" />
            <Array as="points" />
          </mxGeometry>
        </mxCell>
        <mxCell id="Hq1YCbd5vGKezUg84HLW-57" value="" style="endArrow=none;dashed=1;html=1;rounded=0;entryX=0.069;entryY=0.821;entryDx=0;entryDy=0;startArrow=classic;startFill=1;entryPerimeter=0;exitX=0.98;exitY=0.357;exitDx=0;exitDy=0;exitPerimeter=0;" edge="1" parent="1" source="Hq1YCbd5vGKezUg84HLW-59" target="Hq1YCbd5vGKezUg84HLW-24">
          <mxGeometry width="50" height="50" relative="1" as="geometry">
            <mxPoint x="120" y="290" as="sourcePoint" />
            <mxPoint x="210.5" y="246" as="targetPoint" />
          </mxGeometry>
        </mxCell>
        <mxCell id="Hq1YCbd5vGKezUg84HLW-58" value="&amp;lt;&amp;lt;extend&amp;gt;&amp;gt;" style="edgeLabel;html=1;align=center;verticalAlign=middle;resizable=0;points=[];" vertex="1" connectable="0" parent="Hq1YCbd5vGKezUg84HLW-57">
          <mxGeometry x="0.1081" relative="1" as="geometry">
            <mxPoint x="-4" y="1" as="offset" />
          </mxGeometry>
        </mxCell>
        <mxCell id="Hq1YCbd5vGKezUg84HLW-59" value="Viasualizza alert carenza materiale " style="ellipse;whiteSpace=wrap;html=1;" vertex="1" parent="1">
          <mxGeometry x="40" y="280" width="102" height="56" as="geometry" />
        </mxCell>
        <mxCell id="Hq1YCbd5vGKezUg84HLW-61" value="Utente nella lista amministratori" style="rounded=0;whiteSpace=wrap;html=1;dashed=1;" vertex="1" parent="1">
          <mxGeometry x="42" y="190" width="120" height="30" as="geometry" />
        </mxCell>
        <mxCell id="Hq1YCbd5vGKezUg84HLW-64" value="" style="endArrow=none;dashed=1;html=1;rounded=0;entryX=0.633;entryY=-0.05;entryDx=0;entryDy=0;entryPerimeter=0;" edge="1" parent="1" target="Hq1YCbd5vGKezUg84HLW-61">
          <mxGeometry width="50" height="50" relative="1" as="geometry">
            <mxPoint x="170" y="180" as="sourcePoint" />
            <mxPoint x="152" y="300" as="targetPoint" />
            <Array as="points" />
          </mxGeometry>
        </mxCell>
        <mxCell id="Hq1YCbd5vGKezUg84HLW-68" value="" style="endArrow=none;dashed=1;html=1;rounded=0;startArrow=classic;startFill=1;entryX=0;entryY=1;entryDx=0;entryDy=0;exitX=1;exitY=0;exitDx=0;exitDy=0;" edge="1" parent="1" source="Hq1YCbd5vGKezUg84HLW-70" target="Hq1YCbd5vGKezUg84HLW-33">
          <mxGeometry width="50" height="50" relative="1" as="geometry">
            <mxPoint x="230" y="520" as="sourcePoint" />
            <mxPoint x="310" y="470" as="targetPoint" />
          </mxGeometry>
        </mxCell>
        <mxCell id="Hq1YCbd5vGKezUg84HLW-69" value="&amp;lt;&amp;lt;extend&amp;gt;&amp;gt;" style="edgeLabel;html=1;align=center;verticalAlign=middle;resizable=0;points=[];" vertex="1" connectable="0" parent="Hq1YCbd5vGKezUg84HLW-68">
          <mxGeometry x="0.1081" relative="1" as="geometry">
            <mxPoint as="offset" />
          </mxGeometry>
        </mxCell>
        <mxCell id="Hq1YCbd5vGKezUg84HLW-70" value="Rimuove utente" style="ellipse;whiteSpace=wrap;html=1;" vertex="1" parent="1">
          <mxGeometry x="40" y="557" width="102" height="56" as="geometry" />
        </mxCell>
        <mxCell id="Hq1YCbd5vGKezUg84HLW-71" value="" style="endArrow=none;dashed=1;html=1;rounded=0;entryX=1;entryY=0.5;entryDx=0;entryDy=0;startArrow=classic;startFill=1;exitX=0;exitY=0.5;exitDx=0;exitDy=0;" edge="1" parent="1" source="Hq1YCbd5vGKezUg84HLW-73" target="Hq1YCbd5vGKezUg84HLW-12">
          <mxGeometry width="50" height="50" relative="1" as="geometry">
            <mxPoint x="620" y="290" as="sourcePoint" />
            <mxPoint x="474" y="220" as="targetPoint" />
          </mxGeometry>
        </mxCell>
        <mxCell id="Hq1YCbd5vGKezUg84HLW-72" value="&amp;lt;&amp;lt;extend&amp;gt;&amp;gt;" style="edgeLabel;html=1;align=center;verticalAlign=middle;resizable=0;points=[];" vertex="1" connectable="0" parent="Hq1YCbd5vGKezUg84HLW-71">
          <mxGeometry x="0.1081" relative="1" as="geometry">
            <mxPoint as="offset" />
          </mxGeometry>
        </mxCell>
        <mxCell id="Hq1YCbd5vGKezUg84HLW-73" value="Aggiunge utente" style="ellipse;whiteSpace=wrap;html=1;" vertex="1" parent="1">
          <mxGeometry x="710" y="410" width="102" height="56" as="geometry" />
        </mxCell>
        <mxCell id="Hq1YCbd5vGKezUg84HLW-74" value="Utente nella lista amministratori" style="rounded=0;whiteSpace=wrap;html=1;dashed=1;" vertex="1" parent="1">
          <mxGeometry x="22" y="230" width="120" height="30" as="geometry" />
        </mxCell>
        <mxCell id="Hq1YCbd5vGKezUg84HLW-75" value="Utente nella lista amministratori" style="rounded=0;whiteSpace=wrap;html=1;dashed=1;" vertex="1" parent="1">
          <mxGeometry x="540" y="306" width="120" height="30" as="geometry" />
        </mxCell>
        <mxCell id="Hq1YCbd5vGKezUg84HLW-76" value="Utente nella lista amministratori" style="rounded=0;whiteSpace=wrap;html=1;dashed=1;" vertex="1" parent="1">
          <mxGeometry x="182" y="443" width="120" height="30" as="geometry" />
        </mxCell>
        <mxCell id="Hq1YCbd5vGKezUg84HLW-77" value="" style="endArrow=none;dashed=1;html=1;rounded=0;exitX=0.5;exitY=1;exitDx=0;exitDy=0;" edge="1" parent="1" source="Hq1YCbd5vGKezUg84HLW-76">
          <mxGeometry width="50" height="50" relative="1" as="geometry">
            <mxPoint x="610" y="316" as="sourcePoint" />
            <mxPoint x="242" y="510" as="targetPoint" />
            <Array as="points">
              <mxPoint x="240" y="500" />
            </Array>
          </mxGeometry>
        </mxCell>
        <mxCell id="Hq1YCbd5vGKezUg84HLW-78" value="" style="endArrow=none;dashed=1;html=1;rounded=0;" edge="1" parent="1">
          <mxGeometry width="50" height="50" relative="1" as="geometry">
            <mxPoint x="270" y="340" as="sourcePoint" />
            <mxPoint x="280" y="370" as="targetPoint" />
          </mxGeometry>
        </mxCell>
        <mxCell id="Hq1YCbd5vGKezUg84HLW-79" value="Utente nella lista amministratori" style="rounded=0;whiteSpace=wrap;html=1;dashed=1;" vertex="1" parent="1">
          <mxGeometry x="210" y="310" width="120" height="30" as="geometry" />
        </mxCell>
        <mxCell id="Hq1YCbd5vGKezUg84HLW-81" value="" style="endArrow=none;dashed=1;html=1;rounded=0;entryX=1;entryY=0;entryDx=0;entryDy=0;startArrow=classic;startFill=1;exitX=0;exitY=0.5;exitDx=0;exitDy=0;" edge="1" parent="1" source="Hq1YCbd5vGKezUg84HLW-83" target="Hq1YCbd5vGKezUg84HLW-12">
          <mxGeometry width="50" height="50" relative="1" as="geometry">
            <mxPoint x="710" y="270" as="sourcePoint" />
            <mxPoint x="474" y="220" as="targetPoint" />
          </mxGeometry>
        </mxCell>
        <mxCell id="Hq1YCbd5vGKezUg84HLW-82" value="&amp;lt;&amp;lt;extend&amp;gt;&amp;gt;" style="edgeLabel;html=1;align=center;verticalAlign=middle;resizable=0;points=[];" vertex="1" connectable="0" parent="Hq1YCbd5vGKezUg84HLW-81">
          <mxGeometry x="0.1081" relative="1" as="geometry">
            <mxPoint x="54" y="-11" as="offset" />
          </mxGeometry>
        </mxCell>
        <mxCell id="Hq1YCbd5vGKezUg84HLW-83" value="Elimina magazzino" style="ellipse;whiteSpace=wrap;html=1;" vertex="1" parent="1">
          <mxGeometry x="716" y="236" width="96" height="50" as="geometry" />
        </mxCell>
        <mxCell id="Hq1YCbd5vGKezUg84HLW-84" value="Primo nella lista amministratori" style="rounded=0;whiteSpace=wrap;html=1;dashed=1;" vertex="1" parent="1">
          <mxGeometry x="680" y="310" width="120" height="30" as="geometry" />
        </mxCell>
        <mxCell id="Hq1YCbd5vGKezUg84HLW-86" value="" style="endArrow=none;dashed=1;html=1;rounded=0;entryX=0.5;entryY=0;entryDx=0;entryDy=0;" edge="1" parent="1" target="Hq1YCbd5vGKezUg84HLW-84">
          <mxGeometry width="50" height="50" relative="1" as="geometry">
            <mxPoint x="670" y="280" as="sourcePoint" />
            <mxPoint x="610" y="370" as="targetPoint" />
          </mxGeometry>
        </mxCell>
        <mxCell id="Hq1YCbd5vGKezUg84HLW-87" value="Rimuove amministratore" style="ellipse;whiteSpace=wrap;html=1;" vertex="1" parent="1">
          <mxGeometry x="660" y="700" width="102" height="56" as="geometry" />
        </mxCell>
        <mxCell id="Hq1YCbd5vGKezUg84HLW-88" value="" style="endArrow=none;dashed=1;html=1;rounded=0;entryX=0.5;entryY=1;entryDx=0;entryDy=0;startArrow=classic;startFill=1;exitX=0.5;exitY=0;exitDx=0;exitDy=0;" edge="1" parent="1" source="Hq1YCbd5vGKezUg84HLW-87" target="Hq1YCbd5vGKezUg84HLW-38">
          <mxGeometry width="50" height="50" relative="1" as="geometry">
            <mxPoint x="716" y="665" as="sourcePoint" />
            <mxPoint x="716" y="585" as="targetPoint" />
          </mxGeometry>
        </mxCell>
        <mxCell id="Hq1YCbd5vGKezUg84HLW-89" value="&amp;lt;&amp;lt;extend&amp;gt;&amp;gt;" style="edgeLabel;html=1;align=center;verticalAlign=middle;resizable=0;points=[];" vertex="1" connectable="0" parent="Hq1YCbd5vGKezUg84HLW-88">
          <mxGeometry x="0.1081" relative="1" as="geometry">
            <mxPoint as="offset" />
          </mxGeometry>
        </mxCell>
        <mxCell id="Hq1YCbd5vGKezUg84HLW-90" value="Primo nella lista amministratori" style="rounded=0;whiteSpace=wrap;html=1;dashed=1;" vertex="1" parent="1">
          <mxGeometry x="570" y="660" width="120" height="30" as="geometry" />
        </mxCell>
        <mxCell id="Hq1YCbd5vGKezUg84HLW-91" value="" style="endArrow=none;dashed=1;html=1;rounded=0;entryX=0.5;entryY=0;entryDx=0;entryDy=0;exitX=0.75;exitY=0;exitDx=0;exitDy=0;" edge="1" parent="1" source="Hq1YCbd5vGKezUg84HLW-90">
          <mxGeometry width="50" height="50" relative="1" as="geometry">
            <mxPoint x="610" y="610" as="sourcePoint" />
            <mxPoint x="680" y="640" as="targetPoint" />
          </mxGeometry>
        </mxCell>
        <mxCell id="Hq1YCbd5vGKezUg84HLW-94" value="Declassa amministratore" style="ellipse;whiteSpace=wrap;html=1;" vertex="1" parent="1">
          <mxGeometry x="441" y="634" width="102" height="56" as="geometry" />
        </mxCell>
        <mxCell id="Hq1YCbd5vGKezUg84HLW-95" value="" style="endArrow=none;dashed=1;html=1;rounded=0;entryX=0.02;entryY=0.786;entryDx=0;entryDy=0;startArrow=classic;startFill=1;exitX=1;exitY=0;exitDx=0;exitDy=0;entryPerimeter=0;" edge="1" parent="1" source="Hq1YCbd5vGKezUg84HLW-94" target="Hq1YCbd5vGKezUg84HLW-38">
          <mxGeometry width="50" height="50" relative="1" as="geometry">
            <mxPoint x="497" y="599" as="sourcePoint" />
            <mxPoint x="492" y="510" as="targetPoint" />
          </mxGeometry>
        </mxCell>
        <mxCell id="Hq1YCbd5vGKezUg84HLW-96" value="&amp;lt;&amp;lt;extend&amp;gt;&amp;gt;" style="edgeLabel;html=1;align=center;verticalAlign=middle;resizable=0;points=[];" vertex="1" connectable="0" parent="Hq1YCbd5vGKezUg84HLW-95">
          <mxGeometry x="0.1081" relative="1" as="geometry">
            <mxPoint as="offset" />
          </mxGeometry>
        </mxCell>
        <mxCell id="Hq1YCbd5vGKezUg84HLW-97" value="Primo nella lista amministratori" style="rounded=0;whiteSpace=wrap;html=1;dashed=1;" vertex="1" parent="1">
          <mxGeometry x="450" y="540" width="120" height="30" as="geometry" />
        </mxCell>
        <mxCell id="Hq1YCbd5vGKezUg84HLW-98" value="" style="endArrow=none;dashed=1;html=1;rounded=0;" edge="1" parent="1">
          <mxGeometry width="50" height="50" relative="1" as="geometry">
            <mxPoint x="520" y="570" as="sourcePoint" />
            <mxPoint x="570" y="594" as="targetPoint" />
          </mxGeometry>
        </mxCell>
        <mxCell id="Hq1YCbd5vGKezUg84HLW-99" value="Promuove utente" style="ellipse;whiteSpace=wrap;html=1;" vertex="1" parent="1">
          <mxGeometry x="219" y="660" width="102" height="56" as="geometry" />
        </mxCell>
        <mxCell id="Hq1YCbd5vGKezUg84HLW-100" value="" style="endArrow=none;dashed=1;html=1;rounded=0;startArrow=classic;startFill=1;entryX=0.5;entryY=1;entryDx=0;entryDy=0;exitX=0.667;exitY=0;exitDx=0;exitDy=0;exitPerimeter=0;" edge="1" parent="1" source="Hq1YCbd5vGKezUg84HLW-99" target="Hq1YCbd5vGKezUg84HLW-33">
          <mxGeometry width="50" height="50" relative="1" as="geometry">
            <mxPoint x="137" y="575" as="sourcePoint" />
            <mxPoint x="339" y="488" as="targetPoint" />
          </mxGeometry>
        </mxCell>
        <mxCell id="Hq1YCbd5vGKezUg84HLW-101" value="&amp;lt;&amp;lt;extend&amp;gt;&amp;gt;" style="edgeLabel;html=1;align=center;verticalAlign=middle;resizable=0;points=[];" vertex="1" connectable="0" parent="Hq1YCbd5vGKezUg84HLW-100">
          <mxGeometry x="0.1081" relative="1" as="geometry">
            <mxPoint as="offset" />
          </mxGeometry>
        </mxCell>
        <mxCell id="Hq1YCbd5vGKezUg84HLW-102" value="Primo nella lista amministratori" style="rounded=0;whiteSpace=wrap;html=1;dashed=1;" vertex="1" parent="1">
          <mxGeometry x="170" y="590" width="120" height="30" as="geometry" />
        </mxCell>
        <mxCell id="Hq1YCbd5vGKezUg84HLW-103" value="" style="endArrow=none;dashed=1;html=1;rounded=0;" edge="1" parent="1">
          <mxGeometry width="50" height="50" relative="1" as="geometry">
            <mxPoint x="300" y="570" as="sourcePoint" />
            <mxPoint x="269" y="585" as="targetPoint" />
          </mxGeometry>
        </mxCell>
        <mxCell id="Hq1YCbd5vGKezUg84HLW-104" value="" style="endArrow=classic;html=1;rounded=0;" edge="1" parent="1">
          <mxGeometry width="50" height="50" relative="1" as="geometry">
            <mxPoint x="605" y="150" as="sourcePoint" />
            <mxPoint x="605" y="100" as="targetPoint" />
          </mxGeometry>
        </mxCell>
        <mxCell id="Hq1YCbd5vGKezUg84HLW-105" value="Effettua logout" style="ellipse;whiteSpace=wrap;html=1;" vertex="1" parent="1">
          <mxGeometry x="557" y="50" width="96" height="50" as="geometry" />
        </mxCell>
      </root>
    </mxGraphModel>
  </diagram>
</mxfile>
